<?xml version="1.0" encoding="UTF-8" standalone="no"?>
<svg
   xmlns:osb="http://www.openswatchbook.org/uri/2009/osb"
   xmlns:dc="http://purl.org/dc/elements/1.1/"
   xmlns:cc="http://creativecommons.org/ns#"
   xmlns:rdf="http://www.w3.org/1999/02/22-rdf-syntax-ns#"
   xmlns:svg="http://www.w3.org/2000/svg"
   xmlns="http://www.w3.org/2000/svg"
   xmlns:sodipodi="http://sodipodi.sourceforge.net/DTD/sodipodi-0.dtd"
   xmlns:inkscape="http://www.inkscape.org/namespaces/inkscape"
   height="200px"
   width="150px"
   version="1.1"
   id="svg3761"
   sodipodi:docname="johanna.svg"
   inkscape:version="0.92.2 (5c3e80d, 2017-08-06)">
  <metadata
     id="metadata3765">
    <rdf:RDF>
      <cc:Work
         rdf:about="">
        <dc:format>image/svg+xml</dc:format>
        <dc:type
           rdf:resource="http://purl.org/dc/dcmitype/StillImage" />
        <dc:title />
      </cc:Work>
    </rdf:RDF>
  </metadata>
  <sodipodi:namedview
     pagecolor="#ffffff"
     bordercolor="#666666"
     borderopacity="1"
     objecttolerance="10"
     gridtolerance="10"
     guidetolerance="10"
     inkscape:pageopacity="0"
     inkscape:pageshadow="2"
     inkscape:window-width="3200"
     inkscape:window-height="1601"
     id="namedview3763"
     showgrid="false"
     inkscape:pagecheckerboard="true"
     inkscape:zoom="6.655"
     inkscape:cx="-57.062359"
     inkscape:cy="100"
     inkscape:window-x="0"
     inkscape:window-y="57"
     inkscape:window-maximized="1"
     inkscape:current-layer="svg3761" />
  <defs
     id="defs3757">
    <linearGradient
       id="linearGradient4631"
       osb:paint="solid">
      <stop
         style="stop-color:#000000;stop-opacity:1;"
         offset="0"
         id="stop4629" />
    </linearGradient>
    <pattern
       id="diagonalHatch"
       width="8px"
       height="8px"
       patternUnits="userSpaceOnUse">
      <line
         x1="0"
         y1="0"
         x2="8"
         y2="8"
         style="stroke:white; stroke-width:0.3"
         id="line3752" />
      <line
         x1="8"
         y1="0"
         x2="0"
         y2="8"
         style="stroke:white; stroke-width:0.3"
         id="line3754" />
    </pattern>
    <pattern
       patternUnits="userSpaceOnUse"
       width="61.165739"
       height="97"
       patternTransform="translate(71.277366,101.18116)"
       id="pattern5377">
      <polygon
         transform="translate(-9.4546349,-23.5)"
         style="fill:url(#diagonalHatch);fill-opacity:1;stroke:#ffffff;stroke-width:1"
         points="22,24 46,24 50,28 70,80 10,80 18,28 "
         id="veil" />
    </pattern>
  </defs>
  <ellipse
     id="face"
     style="fill:none;fill-opacity:1;stroke:#ffffff;stroke-width:0.71617132"
     cx="44.691948"
     cy="77.856377"
     rx="15.457466"
     ry="25.54973" />
  <rect
     style="stroke:none;fill:none"
     width="61.165739"
     height="97"
     x="71.277366"
     y="101.18116"
     id="rect5380" />
  <path
     sodipodi:type="star"
     style="fill:#000000"
     id="path3816"
     sodipodi:sides="4"
     sodipodi:cx="77.83622"
     sodipodi:cy="47.933895"
     sodipodi:r1="25.677385"
     sodipodi:r2="22.237268"
     sodipodi:arg1="0.48720346"
     sodipodi:arg2="1.2726016"
     inkscape:flatsided="true"
     inkscape:rounded="-0.08"
     inkscape:randomized="0"
     d="m 100.52593,59.954932 c 1.36002,-2.567047 -37.277794,9.308645 -34.710747,10.66867 2.567047,1.360025 -9.308645,-37.277791 -10.66867,-34.710744 -1.360025,2.567048 37.277791,-9.308645 34.710743,-10.66867 -2.567047,-1.360025 9.308646,37.277791 10.668674,34.710744 z"
     transform="rotate(23.988475,140.44356,41.655323)" />
  <ellipse
     style="fill:#000000;stroke-width:0.77198327"
     id="path3820"
     cx="87.722374"
     cy="34.979637"
     rx="24.380802"
     ry="5.4876838"
     transform="matrix(0.99269588,0.12064365,-0.24712561,0.96898345,0,0)" />
  <path
     style="fill:none;stroke:#ffffff;stroke-width:0.80452842;stroke-opacity:1"
     id="path3822"
     sodipodi:type="arc"
     sodipodi:cx="77.310303"
     sodipodi:cy="58.815773"
     sodipodi:rx="15.201431"
     sodipodi:ry="24.527847"
     sodipodi:start="5.6949896"
     sodipodi:end="3.8809983"
     sodipodi:open="true"
     d="M 89.95703,45.206231 A 15.201431,24.527847 0 0 1 86.741367,78.052487 15.201431,24.527847 0 0 1 66.19096,75.540749 15.201431,24.527847 0 0 1 66.078433,42.287711" />
  <path
     sodipodi:type="star"
     id="path3778-5"
     sodipodi:sides="5"
     sodipodi:cx="36.363636"
     sodipodi:cy="155.67242"
     sodipodi:r1="4.3848133"
     sodipodi:r2="20.880064"
     sodipodi:arg1="0.59598647"
     sodipodi:arg2="1.224305"
     inkscape:flatsided="false"
     inkscape:rounded="3.84"
     inkscape:randomized="0"
     d="m 39.992486,158.13373 c -37.7711817,55.68828 66.752294,-5.67356 3.462015,17.17786 -63.290279,22.85142 56.324309,3.28657 -8.310331,-15.42734 -64.634639,-18.7139 26.023475,61.73198 -15.26729,8.60082 -41.290765,-53.13115 14.279456,54.58321 12.104234,-12.6709 -2.175222,-67.25411 -50.6689,43.82602 -12.897718,-11.86226 37.771182,-55.688277 -47.49912,30.44771 15.791159,7.59629 63.290278,-22.85142 -57.338578,-34.646 7.296061,-15.9321 64.634644,18.71391 -43.6355265,-35.765486 -2.344761,17.36567 41.290765,53.13115 15.23171,-65.238433 17.406932,2.01568 2.175222,67.25411 20.530881,-52.552 -17.240301,3.13628 z"
     inkscape:transform-center-x="0.07591297"
     inkscape:transform-center-y="0.20158225"
     style="fill:#f2f2f2"
     transform="matrix(0.05559974,-0.10571842,0.11438734,0.05693326,-6.9878309,34.542902)" />
  <path
     sodipodi:type="star"
     id="path3778-5-9"
     sodipodi:sides="5"
     sodipodi:cx="36.363636"
     sodipodi:cy="155.67242"
     sodipodi:r1="4.3848133"
     sodipodi:r2="20.880064"
     sodipodi:arg1="0.59598647"
     sodipodi:arg2="1.224305"
     inkscape:flatsided="false"
     inkscape:rounded="3.84"
     inkscape:randomized="0"
     d="m 39.992486,158.13373 c -37.7711817,55.68828 66.752294,-5.67356 3.462015,17.17786 -63.290279,22.85142 56.324309,3.28657 -8.310331,-15.42734 -64.634639,-18.7139 26.023475,61.73198 -15.26729,8.60082 -41.290765,-53.13115 14.279456,54.58321 12.104234,-12.6709 -2.175222,-67.25411 -50.6689,43.82602 -12.897718,-11.86226 37.771182,-55.688277 -47.49912,30.44771 15.791159,7.59629 63.290278,-22.85142 -57.338578,-34.646 7.296061,-15.9321 64.634644,18.71391 -43.6355265,-35.765486 -2.344761,17.36567 41.290765,53.13115 15.23171,-65.238433 17.406932,2.01568 2.175222,67.25411 20.530881,-52.552 -17.240301,3.13628 z"
     inkscape:transform-center-x="0.14965434"
     inkscape:transform-center-y="0.36577803"
     style="fill:#f2f2f2"
     transform="matrix(0.10960975,-0.19182876,0.22550411,0.10330685,3.8660051,10.046984)" />
  <path
     sodipodi:type="star"
     id="path3778-5-1"
     sodipodi:sides="5"
     sodipodi:cx="36.363636"
     sodipodi:cy="155.67242"
     sodipodi:r1="4.3848133"
     sodipodi:r2="20.880064"
     sodipodi:arg1="0.59598647"
     sodipodi:arg2="1.224305"
     inkscape:flatsided="false"
     inkscape:rounded="3.84"
     inkscape:randomized="0"
     d="m 39.992486,158.13373 c -37.7711817,55.68828 66.752294,-5.67356 3.462015,17.17786 -63.290279,22.85142 56.324309,3.28657 -8.310331,-15.42734 -64.634639,-18.7139 26.023475,61.73198 -15.26729,8.60082 -41.290765,-53.13115 14.279456,54.58321 12.104234,-12.6709 -2.175222,-67.25411 -50.6689,43.82602 -12.897718,-11.86226 37.771182,-55.688277 -47.49912,30.44771 15.791159,7.59629 63.290278,-22.85142 -57.338578,-34.646 7.296061,-15.9321 64.634644,18.71391 -43.6355265,-35.765486 -2.344761,17.36567 41.290765,53.13115 15.23171,-65.238433 17.406932,2.01568 2.175222,67.25411 20.530881,-52.552 -17.240301,3.13628 z"
     inkscape:transform-center-x="0.10098493"
     inkscape:transform-center-y="0.27546911"
     style="fill:#f2f2f2"
     transform="matrix(0.07396315,-0.14446807,0.15216704,0.07780137,6.3950749,40.640589)" />
  <path
     sodipodi:type="star"
     id="path3778-5-2"
     sodipodi:sides="5"
     sodipodi:cx="36.363636"
     sodipodi:cy="155.67242"
     sodipodi:r1="4.3848133"
     sodipodi:r2="20.880064"
     sodipodi:arg1="0.59598647"
     sodipodi:arg2="1.224305"
     inkscape:flatsided="false"
     inkscape:rounded="3.84"
     inkscape:randomized="0"
     d="m 39.992486,158.13373 c -37.7711817,55.68828 66.752294,-5.67356 3.462015,17.17786 -63.290279,22.85142 56.324309,3.28657 -8.310331,-15.42734 -64.634639,-18.7139 26.023475,61.73198 -15.26729,8.60082 -41.290765,-53.13115 14.279456,54.58321 12.104234,-12.6709 -2.175222,-67.25411 -50.6689,43.82602 -12.897718,-11.86226 37.771182,-55.688277 -47.49912,30.44771 15.791159,7.59629 63.290278,-22.85142 -57.338578,-34.646 7.296061,-15.9321 64.634644,18.71391 -43.6355265,-35.765486 -2.344761,17.36567 41.290765,53.13115 15.23171,-65.238433 17.406932,2.01568 2.175222,67.25411 20.530881,-52.552 -17.240301,3.13628 z"
     inkscape:transform-center-x="0.07591297"
     inkscape:transform-center-y="0.20158225"
     style="fill:#f2f2f2"
     transform="matrix(0.05559974,-0.10571842,0.11438734,0.05693326,38.053322,116.96603)" />
  <path
     style="fill:#000000;fill-opacity:1;stroke:#000000;stroke-width:1px;stroke-linecap:butt;stroke-linejoin:miter;stroke-opacity:1"
     d="m 85.048835,82.644629 4.0571,17.280232 -3.906837,0.901579 3.155523,2.10368 -8.564989,23.1405 z"
     id="path6386"
     inkscape:connector-curvature="0" />
  <path
     style="fill:#000000;fill-opacity:1;stroke:#000000;stroke-width:1px;stroke-linecap:butt;stroke-linejoin:miter;stroke-opacity:1"
     d="m 71.427637,82.99935 -4.0571,17.28023 3.90683,0.90158 -3.15552,2.10368 8.56499,23.1405 z"
     id="path6386-7"
     inkscape:connector-curvature="0" />
  <polygon
     id="polygon5382"
     points="46,24 50,28 70,85 10,85 18,28 22,24 "
     style="fill:url(#diagonalHatch);fill-opacity:1;stroke:#ffffff;stroke-width:1"
     transform="matrix(0.77022373,0,0,0.76661991,17.24205,34.497696)" />
</svg>
